<?xml version="1.0" encoding="iso-8859-1"?>
<!-- Generator: Adobe Illustrator 19.0.0, SVG Export Plug-In . SVG Version: 6.00 Build 0)  -->
<svg version="1.1" id="Layer_1" xmlns="http://www.w3.org/2000/svg" xmlns:xlink="http://www.w3.org/1999/xlink" x="0px" y="0px"
	 viewBox="0 0 471.836 471.836" style="enable-background:new 0 0 471.836 471.836;" xml:space="preserve">
<circle style="fill:#357180;" cx="235.918" cy="235.918" r="235.918"/>
<path style="fill:#DFCC6B;" d="M325.458,174.007c-27.831-3.035-33.919,6.327-59.408-2.683c-16.965-6.002-3.237-53.915-42.656-58.82
	c-61.283-7.626-104.728,24.149-119.938,91.288c-17.897,79.007,32.329,157.711,112.174,175.803
	c79.853,18.088,159.092-31.277,176.985-110.296C405.031,214.515,378.191,179.739,325.458,174.007z M202.223,189.58
	c-5.081,12.352-20.524,17.702-34.484,11.947c-13.96-5.751-21.152-20.419-16.067-32.778c5.085-12.34,20.527-17.695,34.488-11.94
	C200.124,162.561,207.316,177.232,202.223,189.58z"/>
<path style="fill:#EEDD7A;" d="M322.27,169.752c-27.835-3.027-33.923,6.327-59.408-2.683c-16.969-5.998-3.237-53.911-42.66-58.817
	c-61.283-7.626-104.724,24.146-119.935,91.291c-17.901,79,32.325,157.708,112.174,175.799
	c79.849,18.088,159.092-31.285,176.989-110.296C401.846,210.268,375.003,175.481,322.27,169.752z M199.035,185.329
	c-5.081,12.344-20.524,17.695-34.484,11.947c-13.961-5.747-21.152-20.426-16.063-32.782c5.085-12.344,20.524-17.695,34.484-11.94
	C196.936,158.306,204.128,172.982,199.035,185.329z"/>
<g>
	<path style="fill:#DBC55E;" d="M182.972,152.555c-13.957-5.751-29.395-0.4-34.484,11.94c-5.089,12.355,2.103,27.034,16.063,32.782
		c13.957,5.747,29.399,0.393,34.484-11.947C204.128,172.982,196.936,158.306,182.972,152.555z M194.145,183.32
		c-4.101,9.949-16.554,14.267-27.816,9.628c-11.251-4.632-17.055-16.464-12.95-26.424c4.105-9.961,16.554-14.275,27.809-9.643
		C192.45,161.528,198.246,173.359,194.145,183.32z"/>
	<path style="fill:#DBC55E;" d="M186.16,156.81c-13.957-5.755-29.399-0.397-34.488,11.94c-5.085,12.359,2.107,27.027,16.067,32.778
		c13.957,5.755,29.399,0.4,34.484-11.947C207.316,177.232,200.124,162.561,186.16,156.81z M197.333,187.559
		c-4.101,9.957-16.55,14.275-27.813,9.643c-11.255-4.636-17.055-16.471-12.95-26.428c4.105-9.961,16.55-14.279,27.805-9.639
		C195.634,165.767,201.43,177.606,197.333,187.559z"/>
</g>
<path style="fill:#F1E089;" d="M262.862,167.07c-16.969-5.998,2.144-49.103-42.66-58.817
	c-60.355-13.089-104.724,24.146-119.935,91.291c-15.315,67.599,19.248,134.973,79.554,164.346
	C190.003,368.855,288.348,176.08,262.862,167.07z M199.035,185.329c-5.081,12.344-20.524,17.695-34.484,11.947
	c-13.961-5.747-21.152-20.426-16.063-32.782c5.085-12.344,20.524-17.695,34.484-11.94
	C196.936,158.306,204.128,172.982,199.035,185.329z"/>
<path style="fill:#DBC55E;" d="M375.703,236.842c3.446,11.577-8.913,26.469-23.42,22.48c-12.782-3.514-25.698-9.238-24.538-21.261
	c2.095-21.672,10.178-22.159,23.42-22.495C364.414,215.237,372.118,224.779,375.703,236.842z"/>
<path style="fill:#E84849;" d="M371.695,233.71c4.483,9.212-3.809,23.39-16.501,22.054c-11.177-1.171-22.787-4.172-23.472-14.406
	c-1.25-18.424,5.452-19.944,16.494-22.058C359.254,217.19,367.026,224.109,371.695,233.71z"/>
<path style="fill:#DBC55E;" d="M352.489,298.649c0.49,12.067-15.147,23.468-28.232,16.037
	c-11.525-6.548-22.641-15.263-18.555-26.641c7.345-20.482,15.304-18.967,28.224-16.037
	C346.846,274.937,351.976,286.084,352.489,298.649z"/>
<path style="fill:#E79E2D;" d="M349.368,294.634c2.084,10.043-9.433,21.743-21.418,17.321c-10.552-3.884-21.066-9.639-19.218-19.73
	c3.319-18.163,10.185-17.987,21.414-17.321C341.365,275.566,347.202,284.183,349.368,294.634z"/>
<path style="fill:#DBC55E;" d="M291.3,344.964c-6.825,9.972-26.17,9.747-32.217-4.019c-5.321-12.142-9.025-25.777,1.048-32.456
	c18.14-12.03,23.607-6.058,32.213,4.019C300.953,322.581,298.394,334.573,291.3,344.964z"/>
<path style="fill:#DAC425;" d="M291.195,339.872c-4.333,9.295-20.561,11.787-27.521,1.089c-6.137-9.418-11.124-20.333-3.611-27.311
	c13.519-12.569,18.922-8.329,27.517-1.089C296.179,319.801,295.708,330.203,291.195,339.872z"/>
<path style="fill:#DBC55E;" d="M223.589,345.802c-8.778,8.314-27.644,4.019-30.641-10.713c-2.645-12.991-3.39-27.102,7.869-31.502
	c20.265-7.936,24.351-0.935,30.638,10.72C237.744,325.971,232.719,337.159,223.589,345.802z"/>
<path style="fill:#6CC077;" d="M224.562,340.814c-6.196,8.168-22.585,7.192-27.135-4.741c-4.011-10.499-6.585-22.215,2.238-27.461
	c15.858-9.437,20.25-4.15,27.128,4.752C233.662,322.252,231.009,332.313,224.562,340.814z"/>
<path style="fill:#276D69;" d="M253.138,190.257c24.875-20.771,26.529-8.382,33.912-1.003c7.248,7.24,19.079,8.864-0.999,33.908
	c-19.985,24.939-77.32,44.415-77.32,44.415S228.637,210.725,253.138,190.257z"/>
<path style="fill:#355957;" d="M287.049,189.258c7.248,7.24,19.079,8.864-0.999,33.908c-19.985,24.939-77.32,44.415-77.32,44.415
	L287.049,189.258z"/>
<path style="fill:#E79E2D;" d="M275.76,177.468c-3.252,3.248,18.013,25.407,21.717,21.713L421.24,94.053l1.886-1.646
	c-0.022-0.03-0.049-0.06-0.071-0.086c-0.442,0.4-0.846,0.775-1.152,1.081L297.575,199.08c-1.86,1.863-8.105-2.746-13.482-8.228
	c0,0,89.754-89.757,120.167-120.167c-6.724-6.847-13.867-13.268-21.377-19.255l-1.998,2.271L275.76,177.468z"/>
<path style="fill:#D68A28;" d="M284.093,190.852c5.377,5.482,11.618,10.092,13.482,8.228L421.91,93.402
	c0.307-0.307,0.707-0.681,1.152-1.081c-5.833-7.588-12.101-14.817-18.795-21.635C373.847,101.091,284.093,190.852,284.093,190.852z"
	/>
<path style="fill:#CDCCCB;" d="M297.425,199.23l100.204-84.358l-37.56-37.56L275.715,177.52
	C272.628,180.596,293.908,202.736,297.425,199.23z"/>
<path style="fill:#B1B1B2;" d="M297.425,199.23l100.204-84.358l-18.799-18.791c0,0-95.482,94.015-94.734,94.764
	C289.522,196.274,295.666,200.985,297.425,199.23z"/>
<path style="fill:#BFBEBE;" d="M317.223,180.177l72.729-58.899l-35.079-37.769l-61.095,73.043
	C291.423,158.89,314.551,182.845,317.223,180.177z"/>
<path style="fill:#AAAAAA;" d="M297.425,199.23l93.959-79.101l-18.35-18.35c0,0-89.488,88.515-88.942,89.065
	C289.522,196.274,295.666,200.985,297.425,199.23z"/>
<g>
</g>
<g>
</g>
<g>
</g>
<g>
</g>
<g>
</g>
<g>
</g>
<g>
</g>
<g>
</g>
<g>
</g>
<g>
</g>
<g>
</g>
<g>
</g>
<g>
</g>
<g>
</g>
<g>
</g>
</svg>
